<svg width="73" height="72" viewBox="0 0 73 72" fill="none" xmlns="http://www.w3.org/2000/svg">
<path d="M35.6412 15.4188C28.4548 11.9111 19.8563 14.7011 16.4696 21.6397C13.0828 28.5782 16.1727 37.0735 23.3591 40.5813C30.5454 44.089 39.1439 41.299 42.5307 34.3604C45.9175 27.4219 42.8275 18.9265 35.6412 15.4188ZM26.4296 34.2907C22.8364 32.5368 21.2914 28.2891 22.9848 24.8199C24.6782 21.3506 28.9775 19.9556 32.5706 21.7094C36.1638 23.4633 37.7088 27.711 36.0154 31.1802C34.322 34.6495 30.0228 36.0445 26.4296 34.2907Z" fill="white"/>
<path d="M27.4338 70.3403C28.0367 70.7693 28.7591 71 29.5 71C30.2409 71 30.9633 70.7693 31.5662 70.3403C32.6492 69.577 58.103 51.2624 57.9997 28.4002C57.9997 12.7411 45.214 0 29.5 0C13.786 0 1.00031 12.7411 1.00031 28.3825C0.897002 51.2624 26.3508 69.577 27.4338 70.3403ZM29.5 7.10006C41.2882 7.10006 50.8748 16.6532 50.8748 28.418C50.9496 44.173 35.2427 58.3199 29.5 62.9598C23.7609 58.3163 8.05042 44.1659 8.12524 28.4002C8.12524 16.6532 17.7118 7.10006 29.5 7.10006Z" fill="white"/>
</svg>
